<?xml version="1.0" encoding="UTF-8" standalone="no"?>
<svg
   width="16"
   height="16"
   fill="currentColor"
   class="bi bi-journal-check"
   viewBox="0 0 16 16"
   version="1.1"
   id="svg8"
   sodipodi:docname="logo.svg"
   inkscape:version="1.1.1 (3bf5ae0d25, 2021-09-20)"
   xmlns:inkscape="http://www.inkscape.org/namespaces/inkscape"
   xmlns:sodipodi="http://sodipodi.sourceforge.net/DTD/sodipodi-0.dtd"
   xmlns="http://www.w3.org/2000/svg"
   xmlns:svg="http://www.w3.org/2000/svg">
  <sodipodi:namedview
     id="namedview7"
     pagecolor="#ffffff"
     bordercolor="#666666"
     borderopacity="1.0"
     inkscape:pageshadow="2"
     inkscape:pageopacity="0.0"
     inkscape:pagecheckerboard="0"
     showgrid="false"
     inkscape:zoom="38.493125"
     inkscape:cx="7.9884394"
     inkscape:cy="7.1441328"
     inkscape:window-width="1920"
     inkscape:window-height="1051"
     inkscape:window-x="0"
     inkscape:window-y="0"
     inkscape:window-maximized="1"
     inkscape:current-layer="svg8" />
  <defs
     id="defs12" />
  <rect
     style="fill:#212529;stroke-width:0;fill-opacity:1"
     id="rect851"
     width="16"
     height="16"
     x="0"
     y="0" />
  <g
     id="g827"
     transform="translate(0.35755715,-0.03644199)">
    <path
       fill-rule="evenodd"
       d="m 10.690576,6.3515168 a 0.45440276,0.45440276 0 0 1 0,0.6434343 L 7.9641604,9.7213675 a 0.45440276,0.45440276 0 0 1 -0.6434343,0 L 5.9575178,8.3581593 A 0.45497676,0.45497676 0 1 1 6.6009521,7.714725 L 7.6424433,8.7571249 10.047142,6.3515168 a 0.45440276,0.45440276 0 0 1 0.643434,0 z"
       id="path2"
       style="fill:#ffe680;stroke-width:0.908805" />
    <path
       d="M 3.5528184,0.76599798 H 12.640873 A 1.817611,1.817611 0 0 1 14.458484,2.5836091 V 13.489275 a 1.817611,1.817611 0 0 1 -1.817611,1.817611 H 3.5528184 A 1.817611,1.817611 0 0 1 1.7352074,13.489275 V 12.58047 h 0.9088055 v 0.908805 a 0.90880551,0.90880551 0 0 0 0.9088055,0.908806 h 9.0880546 a 0.90880551,0.90880551 0 0 0 0.908805,-0.908806 V 2.5836091 A 0.90880551,0.90880551 0 0 0 12.640873,1.6748035 H 3.5528184 A 0.90880551,0.90880551 0 0 0 2.6440129,2.5836091 V 3.4924146 H 1.7352074 V 2.5836091 a 1.817611,1.817611 0 0 1 1.817611,-1.81761112 z"
       id="path4"
       style="fill:#ffdd55;stroke-width:0.908805" />
    <path
       d="M 1.7352074,5.3100256 V 4.8556228 a 0.45440278,0.45440278 0 0 1 0.9088055,0 v 0.4544028 h 0.4544028 a 0.4544028,0.4544028 0 0 1 0,0.9088056 h -1.817611 a 0.4544028,0.4544028 0 0 1 0,-0.9088056 z m 0,2.7264165 V 7.5820394 a 0.45440278,0.45440278 0 0 1 0.9088055,0 v 0.4544027 h 0.4544028 a 0.4544028,0.4544028 0 0 1 0,0.9088056 h -1.817611 a 0.4544028,0.4544028 0 0 1 0,-0.9088056 z m 0,2.7264159 v -0.454403 a 0.45440278,0.45440278 0 0 1 0.9088055,0 v 0.454403 h 0.4544028 a 0.454403,0.454403 0 0 1 0,0.908806 h -1.817611 a 0.454403,0.454403 0 0 1 0,-0.908806 z"
       id="path6"
       style="fill:#ffcc00;stroke-width:0.908805" />
  </g>
</svg>
